<svg version="1.1" id="Layer_1" xmlns="http://www.w3.org/2000/svg" xmlns:xlink="http://www.w3.org/1999/xlink" x="0" y="0" viewBox="0 0 496.9 68.3" style="enable-background:new 0 0 496.9 68.3" xml:space="preserve"><style>.st2{fill:none;stroke:#333;stroke-width:2;stroke-linecap:round;stroke-miterlimit:10} @media(prefers-color-scheme: dark){.st2{stroke: #FEFEFE;}}</style><g id="XMLID_00000041988750411862580070000014524280421410423430_" style="display:none"><image style="display:inline;overflow:visible;opacity:.29;enable-background:new" width="774" height="124" xlink:href="README-LRO-LOGO-TMP.png" transform="matrix(.75 0 0 .75 -19.612 -8.167)"/><path d="M-17.2 63.7h578.1M-17.2 41.3h578.1M-17.2 4.2h578.1" style="display:inline;opacity:.26;fill:none;stroke:#000;stroke-width:2;stroke-linecap:round;stroke-miterlimit:10;enable-background:new"/></g><g id="Layer_1_00000061439580817969683310000000687592566953639347_"><path class="st2" d="M6.5 25s3.2 3.9 8.1 4.5c7.8.9 16.7-3.9 17.6-16.4.4-5.2-1-8.1-3.9-8.1s-9.9 3.7-8.8 21c.7 11.1 5.9 14.8 5.9 24.1s-5.8 12.7-10.7 12.7c-10.4 0-8.7-11.3.7-11.3 8 0 10.6 8.5 19.7 8.5 6.6 0 7.3-9 7.3-9m-3-20.5s6.2 4.3 12.2 10.2"/><path class="st2" d="M37.3 39.6s7.6-6.1 16.6-7.8m-10.6 9.5c-1.7 6.7-1.2 19.3 4.4 19.3s6.4-15.3 12.7-15.3c4.1 0 3.9 8 3.7 18.3"/><path class="st2" d="M64.2 56.1S64.4 45 69.8 45c7.8 0 1.5 17.8 11.8 17.8 7.8 0 11.7-7.4 11.7-12.6 0-7.4-7.2-6.1-7.2.9s5.6 11.7 10.5 11.7c8.9 0 16.7-13.2 16.7-13.2m13.8 8.9c1.4 5.7 11.3 6.2 11.3-13.6 0-13.3-2.9-30.9-2.9-30.9"/><path class="st2" d="M134.4 32.5s-2.9 4.7-7.3 4.7c-9.9 0-10.7-28.4 9.1-28.4 12.1 0 18.5 7.4 19 15 .4 6.1-3.1 12.9-10.4 12.9-5.6 0-5.7-3.7-.2-3.7 15 0 3.1 30.6 15.9 30.6 11.5 0 10.5-23.1 10.5-23.1m-5-12.4s6.8 4.9 10.6 8.4"/><path class="st2" d="M165.2 36.2s8.9-5.4 14.4-6.8m-9.4 21.5s-.6 11.5 3.7 11.5 5.9-9 5.9-9m17.4-34.8s-3.1 10.5-3.1 28.4c0 9.1 3 15 7.4 15s9.8-5.1 9.8-13.2c0-6.3-6.4-6.9-6.4.8 0 7.1 4.2 11.6 8.6 11.6 10.2 0 10.3-20.9 17.7-20.9 4.4 0 3.2 22.1 3.2 22.1"/><path class="st2" d="M234.4 53.1s1-11.8 6.6-11.8c3.9 0 2.9 4.2 5.8 4.2s5.1-4.2 5.1-4.2m-57.8 3s-1.6-2.8-6.3-2.8c-4.3 0-8.1 6-8.1 13.7 0 5.6 2.6 7.9 6.1 7.9 6.3 0 8.7-11.5 8.7-11.5m70.4 10.8c4.2-12.2-2-15.2-1.3-30 .7-13.8 7.7-26.2 17.4-26.8 12.8-.8 20.4 13 20.4 28.2 0 20.2-11.3 27.7-20.6 27.7-11 0-11.6-5-5.6-4.2 7.6.9 13.1 5.6 22.1 4.7 12.1-1.2 13.6-12.6 15.2-22.1.3-1.5-1.7 23 5.2 23s8.6-20.8 9.1-21c.5-.2 1.1 10.3 6.2 13.3 2.6 1.5 7.5-1.5 8.9-7.7 1.7-7.6-6.1-5.9-6.1 3.3s7.1 12.4 12 9.4c6.1-3.7 4.5-20 9-20 6 0 3.8 23.1 3.8 23.1"/><path class="st2" d="M361.1 49.9s-.7-9.7 4.7-9.7c3.8 0 5.9 4.8 9.7 4.8 10.3 0 15.3-32.4 8.7-32.4-3.9 0-6.1 21.6-6.1 50.6"/><path class="st2" d="M378.1 54.1c0-2.6 3.2-10.6 8.6-10.3 7 .5.1 18.3 7.4 18.3 6.7 0 8.2-8.2 8.2-8.2m16.4-14.5c-3.4 19-2.2 23.9 4.8 23.9 8.7 0 10.6-20.9 11.2-20.9S429.8 63 439.3 63c7.3 0 8.9-19.9 9.8-19.9 1 0-5.6 20 3.7 20 11.5 0 32.7-48.3 19.2-48.3-6.5 0-10 44-1.7 47.3 5.8 2.3 14-1.5 20.2-9.7"/><path class="st2" d="M417.7 45.5s-1-4.2-6.6-4.2c-4.3 0-8.8 6.9-8.8 14.6 0 5.6 2.6 7.9 6.1 7.9 6.3 0 8.6-11.3 8.6-11.3"/></g></svg>