<svg version="1.1" id="Layer_1" xmlns="http://www.w3.org/2000/svg" x="0" y="0" viewBox="0 0 24 24" style="enable-background:new 0 0 24 24" xml:space="preserve"><style>.st1{fill:#fff}</style><path d="M8.8 8.5c.6-1.2 1.8-2 3.2-2 1.9 0 3.5 1.5 3.5 3.4v1.6" style="fill:none;stroke:#fff;stroke-miterlimit:10"/><path class="st1" d="M16 12v6H8v-6h8m0-1H8c-.6 0-1 .4-1 1v6c0 .6.4 1 1 1h8c.6 0 1-.4 1-1v-6c0-.6-.4-1-1-1z"/><path class="st1" d="M12 17c-.6 0-1-.4-1-1v-2c0-.6.4-1 1-1s1 .4 1 1v2c0 .6-.4 1-1 1z"/></svg>