<svg xmlns="http://www.w3.org/2000/svg" viewBox="0 0 40 40" style="enable-background:new 0 0 40 40" xml:space="preserve"><path d="M25 16h-1c-.2-1.1-.8-2-2-2h-4c-1.2 0-1.8.9-2 2h-1c-.6 0-1 .4-1 1v8c0 .6.4 1 1 1h10c.6 0 1-.4 1-1v-8c0-.6-.4-1-1-1zm-5 7c-1.1 0-2-.9-2-2s.9-2 2-2 2 .9 2 2-.9 2-2 2zm.1 8.9c-1.3 0-2.6-.2-3.9-.7-1.3-.4-2.4-1-3.4-1.8-.2-.2-.4-.4-.4-.7 0-.3.1-.6.3-.8.2-.2.4-.3.7-.3.3 0 .5.1.7.2.8.6 1.8 1.1 2.8 1.5 1 .4 2.1.5 3.2.5 2.7 0 5.1-1 7-2.9 1.9-1.9 2.9-4.3 2.9-7s-.9-5.1-2.9-7c-1.9-1.9-4.3-2.9-7-2.9s-5.1 1-7 2.9-2.9 4.3-2.9 7v.6l1.6-1.6c.2-.2.4-.3.7-.3.3 0 .5.1.7.3.2.2.3.4.3.7 0 .3-.1.5-.3.7l-3.3 3.3c-.1.1-.2.2-.3.2h-.8c-.1 0-.2-.1-.3-.2l-3.3-3.3c-.1-.1-.2-.3-.2-.6s.1-.5.3-.7c.2-.2.4-.3.7-.3.3 0 .5.1.7.3l1.6 1.6V20c0-1.7.3-3.2.9-4.6.6-1.4 1.5-2.7 2.5-3.8 1.1-1.1 2.3-1.9 3.8-2.5s3-.9 4.6-.9 3.2.3 4.6.9 2.7 1.5 3.8 2.5c1.1 1.1 1.9 2.3 2.5 3.8s.9 3 .9 4.6c0 3.3-1.2 6.1-3.5 8.4s-5 3.5-8.3 3.5z" style="fill:#fff"/></svg>