<svg xmlns="http://www.w3.org/2000/svg" viewBox="0 0 40 40" style="enable-background:new 0 0 40 40" xml:space="preserve"><path d="M17.1 13.9 15 12.6c2.1-1.2 4.7-1.7 7.4-1 3.9 1 6.9 4.3 7.5 8.3v.3c-.4-.1-.9-.2-1.4-.2h-.6c-.6-3.8-3.9-6.7-7.9-6.7-1 0-2 .2-2.9.6zM12 21.3c0-1 .2-2 .5-2.9l-1.2-2.1c-.8 1.5-1.3 3.2-1.3 5 0 2.8 1.1 5.3 2.9 7.1.4.4 1 .4 1.4 0 .4-.4.4-1 0-1.4-1.4-1.5-2.3-3.5-2.3-5.7zm10.9.6c.2-1.4-.4-2.6-1.4-3.2l-7.4-4.3s-1.2-.8-1.3-.5c-.1.4.3 1.4.3 1.4l4.2 7.3c.6 1.1 1.8 1.8 3.2 1.6 1.2-.1 2.2-1.1 2.4-2.3zm9.5 7c.1.1.2.1.4 0 .1-.1.2-.2.2-.3v-4.3c0-.1-.1-.2-.2-.3-.1-.1-.2-.1-.4 0l-3.1 2.1c-.1.1-.2.2-.2.3 0 .1.1.2.2.3l3.1 2.2zm-5 0c.1.1.2.1.4 0 .1-.1.2-.2.2-.3v-4.3c0-.1-.1-.2-.2-.3-.1-.1-.2-.1-.4 0l-3.1 2.1c-.1.1-.2.2-.2.3 0 .1.1.2.2.3l3.1 2.2z" style="fill:#fff"/></svg>