<svg xmlns="http://www.w3.org/2000/svg" viewBox="0 0 40 40" style="enable-background:new 0 0 40 40" xml:space="preserve"><style>.st3{fill:none;stroke:#fff;stroke-width:2;stroke-linecap:round;stroke-miterlimit:10}.st4{fill:#2196f3}</style><path d="M14.3 27c.4.4.4 1 0 1.4-.4.4-1 .4-1.4 0-2.1-2.1-3.3-5.2-2.8-8.5.6-4 3.6-7.3 7.5-8.3 2.7-.7 5.3-.1 7.4 1l-2.1 1.2c-.9-.3-1.9-.5-2.9-.5-4.4 0-8 3.6-8 8 0 2.2.9 4.2 2.3 5.7zm14.2-7c.5 0 1 .1 1.4.2-.2-1.4-.6-2.7-1.3-3.8l-1.2 2.1c.2.5.3 1.1.4 1.6.3-.1.5-.1.7-.1zm-5.8 2.7 4.2-7.3s.5-1 .3-1.4c-.1-.3-1.3.5-1.3.5l-7.4 4.3c-1 .6-1.7 1.8-1.4 3.2.2 1.2 1.2 2.2 2.4 2.4 1.4.1 2.6-.6 3.2-1.7zm4.9 4.1c.1-.1.2-.2.2-.3 0-.1-.1-.2-.2-.3l-3.1-2.1c-.1-.1-.2-.1-.4 0s-.1.1-.1.3v4.3c0 .1.1.2.2.3s.2.1.4 0l3-2.2zm5 0c.1-.1.2-.2.2-.3 0-.1-.1-.2-.2-.3l-3.1-2.1c-.1-.1-.2-.1-.4 0-.1.1-.2.2-.2.3v4.3c0 .1.1.2.2.3.1.1.2.1.4 0l3.1-2.2z" style="fill:#fff"/></svg>