<svg xmlns="http://www.w3.org/2000/svg" viewBox="0 0 40 40" style="enable-background:new 0 0 40 40" xml:space="preserve"><path d="M18 20v-6.2c0-.4-.1-.7-.3-.9-.2-.2-.4-.4-.7-.4s-.5.1-.7.4c-.2.2-.3.6-.3.9v9.1l-3.6-2.3c-.3-.2-1.3-.7-1.9-.1s-.5 1.6.6 2.7l5.6 5.9c.3.3.7.6 1.2.7.5.2.7.2 1.2.2h3.3c2.6 0 4.7-2.1 4.7-4.7v-9.5c0-.4-.1-.7-.3-.9-.2-.2-.4-.4-.7-.4s-.5.1-.7.4c-.2.2-.3.6-.3.9V20h-1v-6.2c0-.4-.1-.7-.3-.9-.2-.2-.4-.4-.7-.4s-.5.1-.7.4c-.2.2-.3.6-.3.9V20h-1v-8.2c0-.4-.1-.7-.3-.9-.2-.2-.4-.4-.7-.4s-.5.1-.7.4c-.2.2-.3.6-.3.9V20H18z" style="fill:#fff"/></svg>