<svg xmlns="http://www.w3.org/2000/svg" viewBox="0 0 40 40" style="enable-background:new 0 0 40 40" xml:space="preserve"><path d="M12.4 24.8c-.9-1.5-1.4-3.1-1.4-4.9 0-1.1.3-2.3.8-3.5.6-1.2 1.4-2.3 2.5-3.4l.4-.1H12c-.2-.3-.4-.4-.6-.6-.2-.2-.2-.4-.2-.6 0-.2.1-.4.2-.6.2-.2.4-.2.6-.2h4.8c.2 0 .4.1.6.2.2.2.2.4.7.6v4.8c-.4.2-.5.4-.7.6-.2.2-.4.2-.6.2s-.4-.1-.6-.2c-.2-.2-.2-.4-.1-.6V14l-.9.7c-.7.7-1.3 1.5-1.7 2.5-.4.9-.7 1.8-.7 2.7 0 1.4.4 2.7 1.1 4 .7 1.2 1.8 2.1 3.1 2.7.1.1.3.2.4.3.1.2.1.3.1.5 0 .4-.1.6-.3.8s-.5.2-.8 0c-1.8-.8-3-1.9-4-3.4zM23.2 29c-.2 0-.4-.1-.6-.2-.2-.2-.2-.4-.6-.6v-4.8c.3-.2.4-.4.6-.6.2-.2.4-.2.6-.2.2 0 .4.1.6.2.2.2.2.4.2.6V26l.9-.6c.8-.6 1.3-1.4 1.8-2.3.4-.9.7-1.9.7-3.1 0-1.4-.4-2.7-1.1-4-.8-1.2-1.8-2.1-3.1-2.7-.1-.1-.3-.2-.4-.3s-.1-.3-.1-.4c0-.3.1-.6.3-.7s.5-.2.8 0c1.6.7 2.9 1.8 3.8 3.3 1 1.5 1.4 3.1 1.4 4.9 0 1.4-.3 2.6-.8 3.8-.6 1.1-1.4 2.1-2.6 3.1h-.4H28c.2.3.4.4.6.6.2.2.2.4.2.6 0 .2-.1.4-.2.6-.2.1-.4.2-.6.2h-4.8z" style="fill:#ffffff"/></svg>